<?xml version="1.0" ?><!DOCTYPE svg  PUBLIC '-//W3C//DTD SVG 1.1//EN'  'http://www.w3.org/Graphics/SVG/1.1/DTD/svg11.dtd'><svg enable-background="new 0 0 512 512" id="Layer_1" version="1.1" viewBox="0 0 512 512" xml:space="preserve" xmlns="http://www.w3.org/2000/svg" xmlns:xlink="http://www.w3.org/1999/xlink"><g><path d="M507.9,510.5c-91.1-12.7-181.4-25.3-271.8-38c0-67.4,0-134,0-201.2c2.4-0.1,4.5-0.4,6.6-0.4c17.3,0,34.7,0,52,0.1   c69.5,0.5,138.9,1.1,208.4,1.5c4.2,0,5.5,1.3,5.4,5.4c-0.1,17.2,0,34.3,0,51.5c0,57.7,0.1,115.3,0,173   C508.4,504.9,508.1,507.1,507.9,510.5z"/><path d="M507.9,9.2c0,79.3,0,158.1,0,237.5c-90.4,0.7-180.7,1.4-271.6,2c-0.2-2.8-0.6-5.1-0.6-7.3c0-62.6,0.1-125.3-0.1-187.9   c0-5.1,2-6.8,6.3-7.4c18.8-2.5,37.5-4.8,56.3-7.4c18.1-2.5,36.1-5.2,54.2-7.7c19.2-2.7,38.5-5.3,57.7-8c18.1-2.5,36.1-5.1,54.2-7.7   C478.7,13.3,493,11.3,507.9,9.2z"/><path d="M7.9,249.8c0-2.4,0-4.4,0-6.4C7.9,191,8,138.5,7.8,86c0-5,0.9-7,6.6-7.7c21.1-2.6,42.1-6.1,63.1-9   c19.2-2.7,38.5-5.1,57.7-7.7c24.3-3.4,48.6-6.9,72.9-10.5c3.5-0.5,5.5,0.3,5.5,4.1c0,2,0.3,4,0.3,6c0,59.3,0,118.6,0,178   c0,9.7,0,9.7-9.9,9.9c-9.3,0.1-18.6,0.2-28,0.3c-54.3,0.4-108.6,0.7-162.9,1C11.6,250.2,10.2,250,7.9,249.8z"/><path d="M8.4,269.7c4.4,0,8.5,0,12.6,0c30.3,0.1,60.7,0,91,0.2c32.3,0.2,64.6,0.8,96.9,1c3.4,0,4.9,1.3,5,4.5   c0.1,2.8,0.2,5.7,0.2,8.5c-0.1,53.2-0.1,106.3-0.2,159.5c0,8.4,0,16.9,0,26.2c-69.1-9.7-137.1-19.2-205.5-28.8   C8.4,384,8.4,327.3,8.4,269.7z"/></g></svg>