<?xml version="1.0" ?><svg viewBox="0 0 40 40" xmlns="http://www.w3.org/2000/svg"><g id="Logos"><g id="Nintemdo"><path d="M8.92,23.7A3.71,3.71,0,0,1,5,20H5A3.73,3.73,0,0,1,8.92,16.3H31.08A3.73,3.73,0,0,1,35,20h0a3.71,3.71,0,0,1-3.92,3.69Zm0-6.49a2.79,2.79,0,0,0-3,2.79h0a2.77,2.77,0,0,0,3,2.79H31.07a2.77,2.77,0,0,0,3-2.79h0a2.79,2.79,0,0,0-3-2.79Z" id="Border"/><path d="M32.51,18.69c0-.12-.08-.18-.25-.18H32v.6h.14v-.25h.07l.11.25h.16l-.13-.26A.16.16,0,0,0,32.51,18.69Zm-.27.08h-.07v-.16h.06c.09,0,.13,0,.13.09S32.33,18.77,32.24,18.77Z"/><path d="M32.25,18.28a.54.54,0,0,0-.54.54.54.54,0,1,0,1.07,0A.54.54,0,0,0,32.25,18.28Zm0,1a.43.43,0,1,1,.43-.43A.43.43,0,0,1,32.25,19.25Z"/><path d="M32.51,18.69c0-.12-.08-.18-.25-.18H32v.6h.14v-.25h.07l.11.25h.16l-.13-.26A.16.16,0,0,0,32.51,18.69Zm-.27.08h-.07v-.16h.06c.09,0,.13,0,.13.09S32.33,18.77,32.24,18.77Z"/><path d="M32.51,18.69c0-.12-.08-.18-.25-.18H32v.6h.14v-.25h.07l.11.25h.16l-.13-.26A.16.16,0,0,0,32.51,18.69Zm-.27.08h-.07v-.16h.06c.09,0,.13,0,.13.09S32.33,18.77,32.24,18.77Z"/><path d="M20.94,21.06c0,.43-.28.52-.43.52s-.44-.09-.44-.52v-.47h2a1.43,1.43,0,0,0-1.54-1.31A1.43,1.43,0,0,0,19,20.58a1.43,1.43,0,0,0,1.54,1.29A1.52,1.52,0,0,0,22,20.92h-1Zm-.8-1.28a.45.45,0,0,1,.37-.22.44.44,0,0,1,.37.22.82.82,0,0,1,.07.45h-.88A.92.92,0,0,1,20.14,19.78Z"/><path d="M24.23,19.31a1.13,1.13,0,0,1,1.18,1.16v1.26h-1V20.21a.46.46,0,0,0-.48-.42.48.48,0,0,0-.49.42v1.52h-1V19.42h1v.24a1.27,1.27,0,0,1,.83-.35Z"/><path d="M15.73,19.31a1.14,1.14,0,0,1,1.18,1.16v1.26h-1V20.21a.46.46,0,0,0-.48-.42.49.49,0,0,0-.5.42v1.52h-1V19.42h1v.24a1.27,1.27,0,0,1,.84-.35Z"/><path d="M27.67,18.26v1.27a1.42,1.42,0,0,0-.6-.2,1.26,1.26,0,0,0-1.33,1.21,1.25,1.25,0,0,0,1.92,1.06v.14h1V18.26Zm0,2.31V21a.41.41,0,1,1-.82,0v-.82a.39.39,0,0,1,.42-.44.39.39,0,0,1,.4.44Z"/><path d="M30.57,19.26A1.44,1.44,0,0,0,29,20.56a1.55,1.55,0,0,0,3.06,0A1.44,1.44,0,0,0,30.57,19.26Zm.42,1.3v.49c0,.37-.22.52-.43.52s-.43-.15-.43-.52v-1c0-.37.22-.52.43-.52s.43.15.43.52Z"/><rect height="0.71" width="1.05" x="12.23" y="18.25"/><rect height="2.31" width="1.05" x="12.23" y="19.42"/><polygon points="17.48 21.73 17.48 19.43 16.91 19.43 16.91 19.08 17.48 19.08 17.48 18.61 18.53 18.61 18.53 19.08 19.1 19.08 19.1 19.43 18.53 19.43 18.53 21.73 17.48 21.73"/><polygon points="7.98 21.73 7.98 18.25 9.06 18.25 10.56 20.68 10.56 18.25 11.63 18.25 11.63 21.73 10.56 21.73 9.05 19.31 9.05 21.73 7.98 21.73"/></g></g></svg>